<svg xmlns="http://www.w3.org/2000/svg" xmlns:xlink="http://www.w3.org/1999/xlink" viewBox="0 0 32 34"><path d="M 28.476 22.611 C 28.348 22.531 28.219 22.442 28.091 22.352 C 28.042 22.312 27.982 22.282 27.923 22.242 C 25.011 20.668 21.121 18.078 17.477 13.954 C 14.742 10.856 12.916 7.768 11.702 5.247 C 11.662 5.168 11.613 5.088 11.563 5.018 C 11.514 4.958 11.484 4.889 11.445 4.829 C 10.596 3.225 8.898 2.139 6.953 2.189 C 4.316 2.249 2.174 4.42 2.115 7.09 C 2.075 9.152 3.27 10.936 4.998 11.742 C 5.205 11.832 5.402 11.932 5.6 12.031 C 7.989 13.277 10.902 15.149 13.765 17.929 C 17.151 21.216 19.334 24.673 20.716 27.443 C 20.953 27.911 21.16 28.389 21.358 28.867 C 22.108 30.64 23.855 31.895 25.889 31.906 C 28.614 31.925 30.865 29.684 30.875 26.934 C 30.905 25.101 29.927 23.498 28.476 22.611 Z" fill="rgb(255,255,255)"></path><path d="M 29.485 10.82 C 31.459 8.828 31.459 5.599 29.485 3.607 C 27.511 1.615 24.31 1.615 22.336 3.607 C 20.362 5.599 20.362 8.828 22.336 10.82 C 24.31 12.812 27.511 12.812 29.485 10.82 Z" fill="rgb(255,255,255)"></path><path d="M 10.723 30.393 C 12.697 28.401 12.697 25.172 10.723 23.18 C 8.749 21.188 5.549 21.188 3.574 23.18 C 1.6 25.172 1.6 28.401 3.574 30.393 C 5.549 32.385 8.749 32.385 10.723 30.393 Z" fill="rgb(255,255,255)"></path></svg>